<svg xmlns="http://www.w3.org/2000/svg" viewBox="0 0 362.87 296.12"><defs><style>.cls-1{fill:#f37422;}.cls-2{opacity:0.8;}.cls-3{fill:#da1866;}.cls-4{fill:#ffc10d;}.cls-5{fill:#fff;}</style></defs><g id="Layer_2" data-name="Layer 2"><g id="_9" data-name="9"><path class="cls-1" d="M87.3,144.13c5.73,57,93.21,157.65,151.91,151.74s66.43-116.13,60.69-173.12-58-98.39-116.67-92.48S81.57,87.15,87.3,144.13Z"/><g class="cls-2"><path class="cls-3" d="M49.2,246.6c17.22,37.09,95.33,49.33,159.84,38.82S375.64,227,361.55,140.51c-5.48-33.67-41.16-94-174.35-54.33C113.27,108.23,25.41,195.37,49.2,246.6Z"/></g><g class="cls-2"><path class="cls-4" d="M19.57,137.17c0,64.5,116.09,134.94,180.13,134.94s132.85-70.44,132.85-134.94S305.53,29,211,77.9C154,107.36,19.57,72.67,19.57,137.17Z"/></g><g class="cls-2"><path class="cls-4" d="M219.22,49.27c7.56,7.12,37.51,4.14,49.44-8.53S270,10.5,262.42,3.38,239.05.76,227.12,13.43,211.65,42.15,219.22,49.27Z"/></g><g class="cls-2"><path class="cls-3" d="M38.09,216.16c3.68-6.85-2.62-27-12.81-32.5S4.85,189.47,1.17,196.31s1.6,16.84,11.8,22.32S34.41,223,38.09,216.16Z"/></g><g class="cls-2"><path class="cls-3" d="M306.56,43.63c-2.29,4.26,2.66,17.33,9.79,21.16s13.73-3.05,16-7.31-1.64-10.8-8.77-14.63S308.84,39.38,306.56,43.63Z"/></g><path class="cls-5" d="M132.81,150.4a12.74,12.74,0,0,1-1,5.16,12,12,0,0,1-2.78,4,12.44,12.44,0,0,1-4.09,2.55,13.63,13.63,0,0,1-5,.89H99.09V114.14h21.85a8,8,0,0,1,4.14,1.1,10.62,10.62,0,0,1,3.15,2.86,13.36,13.36,0,0,1,2,4,14.58,14.58,0,0,1,.71,4.5,14.35,14.35,0,0,1-1.63,6.75,10.61,10.61,0,0,1-4.67,4.61,11.13,11.13,0,0,1,6,4.57A14.07,14.07,0,0,1,132.81,150.4Zm-28.15-30.89v16.3h14a5.65,5.65,0,0,0,2.71-.65,6.81,6.81,0,0,0,2.14-1.75,8.69,8.69,0,0,0,1.42-2.58,9.31,9.31,0,0,0,.53-3.13,10.09,10.09,0,0,0-.5-3.24,8.66,8.66,0,0,0-1.33-2.61,5.73,5.73,0,0,0-2-1.72,5.45,5.45,0,0,0-2.57-.62Zm22.52,29.79a9.63,9.63,0,0,0-.53-3.2,9.49,9.49,0,0,0-1.42-2.72,7.12,7.12,0,0,0-2.13-1.86,5.64,5.64,0,0,0-2.73-.68H104.66v16.79h15.28a6,6,0,0,0,2.85-.69,8,8,0,0,0,2.29-1.83,8.16,8.16,0,0,0,1.54-2.64A8.93,8.93,0,0,0,127.18,149.3Z"/><path class="cls-5" d="M170.43,157.49V163H140.61V114.14h29.26v5.5H146.18v15.83h20.59v5.16H146.18v16.86Z"/><path class="cls-5" d="M203.83,124.39a9.13,9.13,0,0,0-2-1.85,16.91,16.91,0,0,0-2.78-1.62,18.29,18.29,0,0,0-3.37-1.17,15.9,15.9,0,0,0-3.81-.45q-5.13,0-7.52,2.13a7.49,7.49,0,0,0-2.38,5.85,7.19,7.19,0,0,0,.68,3.31,6,6,0,0,0,2.13,2.23,15.4,15.4,0,0,0,3.63,1.62c1.44.46,3.16.94,5.13,1.44a51.3,51.3,0,0,1,6.16,1.89,17.38,17.38,0,0,1,4.7,2.66,10.36,10.36,0,0,1,3,3.85,13.55,13.55,0,0,1,1,5.57,13.88,13.88,0,0,1-1.24,6.09,12,12,0,0,1-3.37,4.27,14,14,0,0,1-5,2.48,24.29,24.29,0,0,1-6.31.78,26.15,26.15,0,0,1-17.88-6.87l2.66-5.24a14.18,14.18,0,0,0,2.57,2.34,20,20,0,0,0,3.58,2.1,24.94,24.94,0,0,0,4.34,1.52,19.76,19.76,0,0,0,4.85.58q4.69,0,7.31-1.86a6.41,6.41,0,0,0,2.59-5.57,6.56,6.56,0,0,0-.84-3.47,7.37,7.37,0,0,0-2.43-2.45,18,18,0,0,0-4-1.82c-1.59-.53-3.39-1.06-5.41-1.62a48.44,48.44,0,0,1-5.88-1.92,15.65,15.65,0,0,1-4.24-2.48,9.12,9.12,0,0,1-2.56-3.51,12.71,12.71,0,0,1-.87-4.95,15.41,15.41,0,0,1,1.17-6.2,13,13,0,0,1,3.29-4.54,13.56,13.56,0,0,1,5-2.78,20.67,20.67,0,0,1,6.32-.93,20.47,20.47,0,0,1,8,1.51,22.11,22.11,0,0,1,6.37,4.06Z"/><path class="cls-5" d="M247.39,119.64H232.23V163h-5.57V119.64H211.5v-5.5h35.89Z"/><path class="cls-5" d="M117.28,228.39a18.73,18.73,0,0,1-8.91-2.13,22.39,22.39,0,0,1-6.87-5.61,26.55,26.55,0,0,1-4.42-8,27.54,27.54,0,0,1-1.58-9.22,26.63,26.63,0,0,1,1.65-9.29,25.1,25.1,0,0,1,4.57-7.87,22.41,22.41,0,0,1,7-5.44,19.19,19.19,0,0,1,8.78-2,18.72,18.72,0,0,1,8.9,2.13,22,22,0,0,1,6.87,5.64,26,26,0,0,1,4.4,8,27.74,27.74,0,0,1,1.55,9.09,26.85,26.85,0,0,1-1.64,9.29,25.69,25.69,0,0,1-4.55,7.88,22.49,22.49,0,0,1-6.93,5.46A18.92,18.92,0,0,1,117.28,228.39Zm-11.45-24.77a20,20,0,0,0,.75,5.47,15.24,15.24,0,0,0,2.2,4.71,11.13,11.13,0,0,0,3.62,3.31,9.81,9.81,0,0,0,4.94,1.23,9.67,9.67,0,0,0,5.08-1.3,11.68,11.68,0,0,0,3.59-3.41,15.92,15.92,0,0,0,2.13-4.75,20.42,20.42,0,0,0,.71-5.4,20,20,0,0,0-.74-5.47,14.48,14.48,0,0,0-2.23-4.68,11.29,11.29,0,0,0-3.62-3.23,9.86,9.86,0,0,0-4.92-1.21,9.63,9.63,0,0,0-5,1.28,11.72,11.72,0,0,0-3.58,3.33,14.68,14.68,0,0,0-2.17,4.72A20.85,20.85,0,0,0,105.83,203.62Z"/><path class="cls-5" d="M145.06,228V179.12h29.82V189H155.2v10.53h16.21v9.15H155.2V228Z"/><path class="cls-5" d="M180.27,228V179.12h29.82V189H190.41v10.53h16.21v9.15H190.41V228Z"/><path class="cls-5" d="M246.34,218.07V228H215.46V179.12h30.32V189H225.61v9.5h17.32v9.15H225.61v10.39Z"/><path class="cls-5" d="M252.52,228V179.12h19.8a11.64,11.64,0,0,1,5.72,1.45,15.61,15.61,0,0,1,4.55,3.78,18.52,18.52,0,0,1,3,5.3,17.35,17.35,0,0,1,1.08,6,19.58,19.58,0,0,1-.49,4.37,17.86,17.86,0,0,1-1.43,4,14.71,14.71,0,0,1-2.25,3.34,14,14,0,0,1-3,2.51L289.14,228H277.7l-8.42-15.76h-6.61V228Zm10.15-25.6H272a3.73,3.73,0,0,0,3.09-1.89,8.44,8.44,0,0,0,1.3-4.85,7.26,7.26,0,0,0-1.49-4.82,4.21,4.21,0,0,0-3.21-1.79h-9Z"/></g></g></svg>